Coordinates
version=1
nRows=15
nColumns=34
inDegrees=yes

Units are S.I. units (second, meters, Newtons, ...)
If the header above contains a line with 'inDegrees', this indicates whether rotational values are in degrees (yes) or radians (no).

endheader
time	pelvis_tilt	pelvis_list	pelvis_rotation	pelvis_tx	pelvis_ty	pelvis_tz	hip_flexion_l	hip_adduction_l	hip_rotation_l	hip_flexion_r	hip_adduction_r	hip_rotation_r	knee_angle_l_beta	knee_angle_r_beta	knee_angle_l	knee_angle_r	ankle_angle_l	ankle_angle_r	subtalar_angle_l	subtalar_angle_r	mtp_angle_l	mtp_angle_r	lumbar_ext	lumbar_bend	lumbar_rota	shoulder_flexion_r	shoulder_adduction_r	shoulder_rotation_r	elbow_flexion_r	shoulder_flexion_l	shoulder_adduction_l	shoulder_rotation_l	elbow_flexion_l
      0.21000000	     47.75117333	    -11.86614579	     11.03692287	     -1.01365839	      1.08068749	      0.24928950	    -59.06867795	    -21.46421027	    -16.78378373	    -36.62208302	     19.37304539	     -3.67823449	      0.66022663	      0.09039826	    -37.82819922	     -5.17943896	     -9.51019910	     -4.52059846	     19.14860634	     -5.98696445	     -6.07810768	    -19.38402371	    -58.53566672	     16.47414344	      3.06253132	      1.66764797	     -8.61690589	     13.89423916	     22.73444325	      4.97285916	     -6.61022262	      6.85720098	     42.82675853
      0.22000000	     47.70518478	    -11.53606841	     10.93778353	     -1.00329028	      1.08232695	      0.25121259	    -57.25892039	    -21.57723424	    -15.21840863	    -37.26022399	     19.19389284	     -3.45815043	      0.70665276	      0.09017629	    -40.48822078	     -5.16672065	    -10.14540000	     -4.10450592	     18.05856676	     -6.37705694	     -6.11193414	    -19.39351354	    -58.56050963	     16.04984997	      3.03383937	      1.71902147	     -8.67425926	     13.99901392	     23.00461398	      4.94561556	     -6.73343270	      7.11396871	     42.07955643
      0.23000000	     47.73712960	    -11.18638254	     10.77637280	     -0.99299347	      1.08400537	      0.25311715	    -55.58296510	    -21.54436679	    -13.79756328	    -38.06967595	     18.94977687	     -3.16446736	      0.74886918	      0.08785037	    -42.90704351	     -5.03345570	    -10.32932388	     -3.68691993	     17.11463125	     -6.51683646	     -6.19837210	    -19.40169505	    -58.66532099	     15.56340933	      3.05858721	      1.75419092	     -8.75480024	     14.07413412	     23.33527492	      4.91570729	     -6.81602343	      7.35239319	     41.35326960
      0.24000000	     47.76561532	    -10.64053673	     10.55922854	     -0.98308347	      1.08571974	      0.25508555	    -53.86122325	    -21.25892669	    -12.31210824	    -38.87361440	     18.51176187	     -3.06689570	      0.78798592	      0.08527235	    -45.14826742	     -4.88574574	    -10.02092802	     -3.23968700	     16.01103668	     -6.66187365	     -6.43452446	    -19.43518518	    -58.79598814	     14.89673481	      2.99516114	      1.81813711	     -8.80529804	     14.10875812	     23.62418139	      4.98591146	     -6.94662081	      7.69287567	     40.56672737
      0.25000000	     47.85992324	    -10.04831046	     10.25491310	     -0.97333966	      1.08755270	      0.25700971	    -52.28055438	    -20.78450000	    -10.96382470	    -39.80956703	     17.97123493	     -2.97275010	      0.82194852	      0.08099891	    -47.09418146	     -4.64089543	     -9.36894462	     -2.81561930	     15.04629176	     -6.65814199	     -6.78756694	    -19.46787822	    -59.03399603	     14.15332623	      2.94954689	      1.91226506	     -8.89552568	     14.15102941	     23.93844444	      5.04461503	     -7.07497994	      8.00674888	     39.78641232
      0.26000000	     48.03820297	     -9.15511772	      9.89354244	     -0.96403774	      1.08963182	      0.25896169	    -50.76450631	    -19.96072551	     -9.47981423	    -40.83765344	     17.13345077	     -3.13054371	      0.85148640	      0.07662581	    -48.78657704	     -4.39033567	     -8.65196988	     -2.31449738	     13.97247473	     -6.40933785	     -7.95210439	    -19.50060567	    -59.38414873	     13.15248250	      2.76621594	      2.05258926	     -8.90899728	     14.09774198	     24.12120914	      5.18346905	     -7.27629380	      8.50457131	     39.04683160
      0.27000000	     48.24957745	     -8.30276753	      9.43338820	     -0.95453775	      1.09170981	      0.26095469	    -49.44239852	    -19.04212182	     -8.33007944	    -41.98268575	     16.25734161	     -3.30081567	      0.87548119	      0.06999650	    -50.16137719	     -4.01050415	     -7.40141351	     -1.83402612	     13.05054634	     -5.89778881	    -10.05248908	    -19.44210990	    -59.74013981	     12.11558944	      2.62239056	      2.15663734	     -8.97974454	     14.13641493	     24.41463005	      5.24678093	     -7.40008313	      8.80950472	     38.31299558
      0.28000000	     48.34186379	     -7.84383513	      8.94264263	     -0.94500745	      1.09349023	      0.26309646	    -48.12073485	    -18.44880671	     -7.73348364	    -42.94786161	     15.69327513	     -3.05790872	      0.89421282	      0.06388161	    -51.23462065	     -3.66014691	     -5.91646618	     -1.59977431	     12.55223745	     -5.84160387	    -10.17421178	    -19.44045485	    -60.00278512	     11.31011220	      2.77793903	      2.27520046	     -9.13032577	     14.32316335	     24.77290779	      5.27665176	     -7.37644332	      8.75409876	     37.53231750
      0.29000000	     48.43527749	     -6.99306452	      8.33920608	     -0.93568820	      1.09541932	      0.26525672	    -46.80095960	    -17.38359353	     -6.92879918	    -43.91233427	     14.72528964	     -3.10254137	      0.90805797	      0.05836902	    -52.02788914	     -3.34429845	     -4.57972266	     -1.24545476	     11.88721735	     -5.78657045	    -10.63545218	    -19.46002570	    -60.24904759	     10.16537243	      2.66700854	      2.45579206	     -9.23181666	     14.47323045	     24.99033643	      5.37633479	     -7.46343592	      8.93190481	     36.71773648
      0.30000000	     48.53137060	     -6.48135378	      7.79814253	     -0.92621490	      1.09720761	      0.26733119	    -45.59947707	    -16.61818982	     -6.45601990	    -44.91969055	     14.05367047	     -2.89730201	      0.91659781	      0.05042096	    -52.51718627	     -2.88890811	     -3.17802263	     -1.12596490	     11.35632673	     -5.52453462	    -10.80362699	    -19.48832199	    -60.48852509	      9.28815234	      2.81813036	      2.62254917	     -9.37418869	     14.57017814	     25.19185778	      5.35501717	     -7.46375493	      8.90687038	     36.09026985
      0.31000000	     48.74808461	     -5.01599651	      6.96221527	     -0.91722795	      1.09952182	      0.26977994	    -44.54309151	    -14.76494778	     -5.53423802	    -46.04047446	     12.43348040	     -3.47512437	      0.91818745	      0.04426541	    -52.60826585	     -2.53622105	     -2.24552178	     -0.49807924	     10.42421940	     -4.97209017	    -12.39743098	    -19.48038953	    -60.89623997	      7.56359667	      2.30304522	      2.82664288	     -9.33115707	     14.62000172	     25.31824945	      5.45765772	     -7.67444647	      9.23227840	     35.36027027
      0.32000000	     48.82523509	     -4.16332424	      6.31780543	     -0.90783657	      1.10130574	      0.27188528	    -43.42696478	    -13.55067831	     -5.07968038	    -46.99048973	     11.40008236	     -3.97114701	      0.91862522	      0.03717740	    -52.63334786	     -2.13010834	     -0.50256400	     -0.00642409	     10.00748643	     -4.01803394	    -17.10697348	    -18.97040717	    -61.11428424	      6.40042865	      2.15118057	      3.00182964	     -9.39952825	     14.64708246	     25.53439928	      5.44713639	     -7.70545898	      9.09968895	     34.66575489
      0.33000000	     48.75874889	     -3.72479802	      5.74561545	     -0.89835980	      1.10273149	      0.27398124	    -42.23011548	    -12.76769250	     -4.94607095	    -47.76676634	     10.75639709	     -3.80982478	      0.91368366	      0.02960600	    -52.35021780	     -1.69629903	      0.81360349	      0.08480032	      9.71615313	     -3.95690526	    -17.02897790	    -19.01343335	    -61.18498774	      5.54873761	      2.31475609	      3.17064223	     -9.51368210	     14.68082461	     25.71265471	      5.40531439	     -7.67985380	      8.93004299	     34.00638869
      0.34000000	     48.88840557	     -2.53547766	      4.84896792	     -0.88917732	      1.10454755	      0.27654557	    -41.35404591	    -11.04756421	     -4.52595180	    -48.78989726	      9.31966319	     -4.13696618	      0.90068046	      0.02174920	    -51.60518878	     -1.24613758	      1.48241805	      0.52399863	      9.18594276	     -3.65991569	    -17.41878607	    -19.06604899	    -61.46059158	      3.94850721	      1.98744365	      3.37136992	     -9.48998362	     14.57735574	     25.85495899	      5.39971705	     -7.82424170	      8.93657222	     33.43039806
      0.35000000	     48.71030105	     -2.22866987	      4.40391630	     -0.87962320	      1.10555977	      0.27843641	    -40.12215441	    -10.42072792	     -4.49231194	    -49.43160560	      8.86117785	     -4.12868156	      0.88884096	      0.01348852	    -50.92683586	     -0.77283508	      2.65788078	      0.61925956	      8.90902132	     -3.47843086	    -17.41675089	    -19.10098995	    -61.38758601	      3.27975837	      2.13749775	      3.55544007	     -9.59396177	     14.55374259	     26.04182927	      5.30977144	     -7.82436753	      8.73592239	     32.84156542
